<?xml version="1.0" standalone="no"?> <!DOCTYPE svg PUBLIC "-//W3C//DTD SVG 1.1//EN" "http://www.w3.org/Graphics/SVG/1.1/DTD/svg11.dtd" > <svg xmlns="http://www.w3.org/2000/svg" xmlns:xlink="http://www.w3.org/1999/xlink" version="1.1" viewBox="0 0 1000 1000">  <g transform="matrix(1 0 0 -1 0 859)">  <path fill="currentColor" d="M672 177q0 16 31 6q20 -6 36 -20q67 -57 53 -96q-4 -10 -37.5 -24t-51.5 -14q-17 0 -20 -7q-5 -8 -18 -7.5t-13 8.5q1 9 31 39q27 28 29.5 46t-19.5 40q-21 20 -21 29zM378 637q-25 25 -20 28h7q25 -2 47 -22.5t36 -57.5q23 -61 11 -98q-8 -21 -4 -25t33 9l63 29l34 14 l50 -19q36 -12 49.5 -24t4.5 -25q-3 -6 -59.5 -24.5t-67.5 -27.5t-35 -19q-30 -13 -72.5 -44.5t-42.5 -40.5q0 -12 39.5 -30.5t72.5 -49.5q25 -22 36.5 -25t27.5 9q8 7 13 4q5 -5 -4.5 -15.5t-20.5 -13.5q-10 -4 -11.5 -16.5t-1.5 -61.5q0 -134 -23 -157q-6 -5 -13.5 -4.5 t-25.5 5.5q-30 11 -42.5 11t-54.5 20l-41 21l-23 -14q-22 -13 -46 -13q-15 0 -25 6t-28 26q-20 23 -29 42.5t-3 25.5q3 4 25 -4q14 -4 17.5 -3t3.5 10t4 11t18 -1q21 -3 75.5 27.5t87.5 41.5t33 19.5t-28 33.5q-53 46 -53 82q0 17 -8 17q-8 -1 -36 -25q-29 -27 -51 -39 q-20 -13 -29.5 -5t-10.5 42q-1 23 3.5 32.5t24.5 29.5q32 30 73.5 114.5t44.5 125.5q4 31 0.5 39t-25.5 29zM485 76q6 50 -19 49q-23 -1 -49 -49q-18 -36 -15 -42q5 -7 31 -5.5t37 8.5q11 9 15 39z" />  </g> </svg>