<?xml version="1.0" standalone="no"?> <!DOCTYPE svg PUBLIC "-//W3C//DTD SVG 1.1//EN" "http://www.w3.org/Graphics/SVG/1.1/DTD/svg11.dtd" > <svg xmlns="http://www.w3.org/2000/svg" xmlns:xlink="http://www.w3.org/1999/xlink" version="1.1" viewBox="0 0 1000 1000">  <g transform="matrix(1 0 0 -1 0 859)">  <path fill="currentColor" d="M228 427l39 -37v-61q2 -61 3 -101q0 -42 -6 -97t6 -79q16 -34 19 -54t-5 -46q-10 -33 -15 -37.5t-28.5 7t-53 66t-30 65.5t15.5 45q10 23 12.5 50t1.5 127q0 144 -5 166t1.5 22t44.5 -36zM476 444q52 27 61 30t23 -1q13 -4 14.5 -16t-10.5 -21q-10 -9 -20.5 -29.5 t-6.5 -24.5t26 -11l22 -7l3 -65l4 -64l27 -15q54 -28 -2 -54q-29 -14 -35 -24.5t-6 -84.5q0 -119 -31 -119q-10 -1 -20 8q-8 4 -8.5 11t3.5 28q10 40 6.5 84.5t-15.5 44.5q-7 0 -52.5 -22.5t-91.5 -47.5q-32 -19 -39 -15t-7 35q0 21 6.5 32t33.5 37q39 39 49 56q7 10 6.5 14 t-8.5 10q-23 16 20 84l48 73q27 42 21 44q-2 1 -6 1q-18 0 -52 -67q-16 -32 -48.5 -40.5t-69.5 10.5q-24 14 -25 24.5t21 13.5q23 5 60.5 30.5t98.5 57.5zM497 313q10 0 10 13.5t-6.5 13.5t-10 -13.5t6.5 -13.5zM520 207q0 23 -15 11q-5 -4 -14 -15q-17 -16 -13 -22.5 t24 3.5q18 8 18 23zM362 638q2 21 11 21t57 -20q35 -15 41 -33q7 -16 2.5 -24t-23.5 -13q-18 -4 -30 -29q-11 -23 -34 -37t-40 -10q-16 5 -34 34q-24 42 -14 42q4 0 10 -3q13 -7 45 5q37 18 28 33q-2 3 -10 5q-13 5 -9 29zM699 690q12 13 25 11.5t41 -16.5q26 -12 39 -30.5 t5 -30.5q-9 -13 -8 -184.5t11 -214.5t10 -82.5t10 -86.5q10 -49 9.5 -94t-10.5 -56q-16 -16 -36 -7.5t-39 41.5q-18 30 -49 45l-32 15l32 5q32 4 40 11q7 7 0.5 175.5t-15.5 237.5q-7 52 -2 122q1 18 1.5 34t0.5 26t-1 10q-4 0 -33 -17q-29 -16 -42.5 -16t-29.5 15 q-26 26 -12 31q1 1 3 1q6 0 37.5 20.5t44.5 34.5z" />  </g> </svg>